<mxfile host="app.diagrams.net" agent="Mozilla/5.0 (X11; Linux x86_64; rv:129.0) Gecko/20100101 Firefox/129.0" version="24.7.16">
  <diagram name="Page-1" id="onOk7eTvqDUZerR4DOFt">
    <mxGraphModel dx="795" dy="508" grid="1" gridSize="10" guides="1" tooltips="1" connect="1" arrows="1" fold="1" page="1" pageScale="1" pageWidth="850" pageHeight="1100" math="0" shadow="0">
      <root>
        <mxCell id="0" />
        <mxCell id="1" parent="0" />
        <mxCell id="4iDvKhQqW8qEFxJBXXhp-8" value="NoteVerse" style="swimlane;whiteSpace=wrap;html=1;" vertex="1" parent="1">
          <mxGeometry x="40" y="80" width="310" height="258" as="geometry" />
        </mxCell>
        <mxCell id="4iDvKhQqW8qEFxJBXXhp-9" value="noteverse-backend" style="shape=image;html=1;verticalAlign=top;verticalLabelPosition=bottom;labelBackgroundColor=#ffffff;imageAspect=0;aspect=fixed;image=https://cdn1.iconfinder.com/data/icons/unicons-line-vol-3/24/docker-128.png" vertex="1" parent="4iDvKhQqW8qEFxJBXXhp-8">
          <mxGeometry x="50" y="35" width="50" height="50" as="geometry" />
        </mxCell>
        <mxCell id="4iDvKhQqW8qEFxJBXXhp-10" value="postgres-db" style="shape=image;html=1;verticalAlign=top;verticalLabelPosition=bottom;labelBackgroundColor=#ffffff;imageAspect=0;aspect=fixed;image=https://cdn1.iconfinder.com/data/icons/unicons-line-vol-3/24/docker-128.png" vertex="1" parent="4iDvKhQqW8qEFxJBXXhp-8">
          <mxGeometry x="180" y="35" width="50" height="50" as="geometry" />
        </mxCell>
        <mxCell id="4iDvKhQqW8qEFxJBXXhp-11" value="cadvisor" style="shape=image;html=1;verticalAlign=top;verticalLabelPosition=bottom;labelBackgroundColor=#ffffff;imageAspect=0;aspect=fixed;image=https://cdn1.iconfinder.com/data/icons/unicons-line-vol-3/24/docker-128.png" vertex="1" parent="4iDvKhQqW8qEFxJBXXhp-8">
          <mxGeometry x="20" y="140" width="50" height="50" as="geometry" />
        </mxCell>
        <mxCell id="4iDvKhQqW8qEFxJBXXhp-12" value="nginx" style="shape=image;html=1;verticalAlign=top;verticalLabelPosition=bottom;labelBackgroundColor=#ffffff;imageAspect=0;aspect=fixed;image=https://cdn1.iconfinder.com/data/icons/unicons-line-vol-3/24/docker-128.png" vertex="1" parent="4iDvKhQqW8qEFxJBXXhp-8">
          <mxGeometry x="210" y="140" width="50" height="50" as="geometry" />
        </mxCell>
        <mxCell id="4iDvKhQqW8qEFxJBXXhp-13" value="promtail" style="shape=image;html=1;verticalAlign=top;verticalLabelPosition=bottom;labelBackgroundColor=#ffffff;imageAspect=0;aspect=fixed;image=https://cdn1.iconfinder.com/data/icons/unicons-line-vol-3/24/docker-128.png" vertex="1" parent="4iDvKhQqW8qEFxJBXXhp-8">
          <mxGeometry x="120" y="140" width="50" height="50" as="geometry" />
        </mxCell>
        <mxCell id="4iDvKhQqW8qEFxJBXXhp-15" value="80" style="fontStyle=0;labelPosition=right;verticalLabelPosition=middle;align=left;verticalAlign=middle;spacingLeft=2;fontColor=#33FF33;" vertex="1" parent="4iDvKhQqW8qEFxJBXXhp-8">
          <mxGeometry x="100" y="55" width="10" height="10" as="geometry" />
        </mxCell>
        <mxCell id="4iDvKhQqW8qEFxJBXXhp-16" value="5432" style="fontStyle=0;labelPosition=right;verticalLabelPosition=middle;align=left;verticalAlign=middle;spacingLeft=2;fontColor=#33FF33;" vertex="1" parent="4iDvKhQqW8qEFxJBXXhp-8">
          <mxGeometry x="230" y="55" width="10" height="10" as="geometry" />
        </mxCell>
        <mxCell id="4iDvKhQqW8qEFxJBXXhp-18" value="443" style="fontStyle=0;labelPosition=right;verticalLabelPosition=middle;align=left;verticalAlign=middle;spacingLeft=2;fontColor=#33FF33;" vertex="1" parent="4iDvKhQqW8qEFxJBXXhp-8">
          <mxGeometry x="260" y="160" width="10" height="10" as="geometry" />
        </mxCell>
        <mxCell id="4iDvKhQqW8qEFxJBXXhp-20" value="8080" style="fontStyle=0;labelPosition=right;verticalLabelPosition=middle;align=left;verticalAlign=middle;spacingLeft=2;fontColor=#33FF33;" vertex="1" parent="4iDvKhQqW8qEFxJBXXhp-8">
          <mxGeometry x="70" y="160" width="10" height="10" as="geometry" />
        </mxCell>
        <mxCell id="4iDvKhQqW8qEFxJBXXhp-19" value="port1" style="fontStyle=0;labelPosition=right;verticalLabelPosition=middle;align=left;verticalAlign=middle;spacingLeft=2;fontColor=#33FF33;" vertex="1" parent="4iDvKhQqW8qEFxJBXXhp-8">
          <mxGeometry x="160" y="160" width="10" height="10" as="geometry" />
        </mxCell>
        <mxCell id="4iDvKhQqW8qEFxJBXXhp-23" value="80" style="fontStyle=0;labelPosition=right;verticalLabelPosition=middle;align=left;verticalAlign=middle;spacingLeft=2;fontColor=#33FF33;" vertex="1" parent="4iDvKhQqW8qEFxJBXXhp-8">
          <mxGeometry x="260" y="180" width="10" height="10" as="geometry" />
        </mxCell>
      </root>
    </mxGraphModel>
  </diagram>
</mxfile>
